HIERARCHY
ROOT Hips
{
  OFFSET 279.157 85.6768 304.565
  CHANNELS 6 Xposition Yposition Zposition Zrotation Xrotation Yrotation
  JOINT LeftUpLeg
  {
    OFFSET 8.64259 1.95398 -2.38835
    CHANNELS 3 Zrotation Xrotation Yrotation
    JOINT LeftLeg
    {
      OFFSET 43.7702 0 0
      CHANNELS 3 Zrotation Xrotation Yrotation
      JOINT LeftFoot
      {
        OFFSET 40.6238 0 0
        CHANNELS 3 Zrotation Xrotation Yrotation
        JOINT LeftToeBase
        {
          OFFSET 12.7242 0 0
          CHANNELS 3 Zrotation Xrotation Yrotation
          End Site
          {
            OFFSET 0 0 0
          }
        }
      }
    }
  }
  JOINT RightUpLeg
  {
    OFFSET -8.2249 1.95398 -2.59336
    CHANNELS 3 Zrotation Xrotation Yrotation
    JOINT RightLeg
    {
      OFFSET 43.5653 0 0
      CHANNELS 3 Zrotation Xrotation Yrotation
      JOINT RightFoot
      {
        OFFSET 40.6238 0 0
        CHANNELS 3 Zrotation Xrotation Yrotation
        JOINT RightToeBase
        {
          OFFSET 12.7242 0 0
          CHANNELS 3 Zrotation Xrotation Yrotation
          End Site
          {
            OFFSET 0 0 0
          }
        }
      }
    }
  }
  JOINT Spine
  {
    OFFSET 0.165834 0.87714 6.61349
    CHANNELS 3 Zrotation Xrotation Yrotation
    JOINT Spine1
    {
      OFFSET 7.38963 1.71661e-005 0
      CHANNELS 3 Zrotation Xrotation Yrotation
      JOINT Spine2
      {
        OFFSET 11.9445 1.14441e-005 0
        CHANNELS 3 Zrotation Xrotation Yrotation
        JOINT Spine3
        {
          OFFSET 14.7254 4.19617e-005 0
          CHANNELS 3 Zrotation Xrotation Yrotation
          JOINT Spine4
          {
            OFFSET 10.9679 0 0
            CHANNELS 3 Zrotation Xrotation Yrotation
            JOINT RightShoulder
            {
              OFFSET 2.46616 -1.6653 3.69651
              CHANNELS 3 Zrotation Xrotation Yrotation
              JOINT RightArm
              {
                OFFSET 13.0012 0 0
                CHANNELS 3 Zrotation Xrotation Yrotation
                JOINT RightForeArm
                {
                  OFFSET 28.7848 1.52588e-005 0
                  CHANNELS 3 Zrotation Xrotation Yrotation
                  JOINT RightHand
                  {
                    OFFSET 26.5688 1.52588e-005 0
                    CHANNELS 3 Zrotation Xrotation Yrotation
                    End Site
                    {
                      OFFSET 0 0 0
                    }
                  }
                }
              }
            }
            JOINT LeftShoulder
            {
              OFFSET 2.38034 -1.29275 -3.7523
              CHANNELS 3 Zrotation Xrotation Yrotation
              JOINT LeftArm
              {
                OFFSET 16.3182 6.10351e-005 0
                CHANNELS 3 Zrotation Xrotation Yrotation
                JOINT LeftForeArm
                {
                  OFFSET 27.0901 0 0
                  CHANNELS 3 Zrotation Xrotation Yrotation
                  JOINT LeftHand
                  {
                    OFFSET 24.5451 1.52588e-005 0
                    CHANNELS 3 Zrotation Xrotation Yrotation
                    End Site
                    {
                      OFFSET 0 0 0
                    }
                  }
                }
              }
            }
            JOINT Neck
            {
              OFFSET 5.0226 -0.0266342 0
              CHANNELS 3 Zrotation Xrotation Yrotation
              JOINT Head
              {
                OFFSET 6.69364 2.86102e-005 0
                CHANNELS 3 Zrotation Xrotation Yrotation
                End Site
                {
                  OFFSET 0 0 0
                }
              }
            }
          }
        }
      }
    }
  }
}
MOTION
Frames:	15
Frame Time:	0.0416667
69.1978 101.095 -39.6091 102.133 45.2213 84.3768 -174.533 -4.22579 87.3569 -23.0739 14.2895 -0.149598 78.5637 11.3818 -1.17798 9.56809 -13.9946 6.98653 -179.81 15.1789 93.9267 -27.0026 -11.755 -2.73519 65.2149 -4.07482 -2.69396 20.604 1.9702 4.14896 -0.361387 8.12072 -90.3629 10.6296 -0.886595 -0.640891 -1.04114 -0.913947 -0.601268 -23.5765 -0.653002 -0.87772 -3.56384 -0.653004 -0.87773 86.6607 -32.0285 -112.374 22.4706 -3.60672 -19.7826 10.5507 7.93546 -45.8411 -12.7477 2.64576 -22.2143 -90.9347 -49.3503 77.1823 -24.5833 9.78508 -21.7745 -24.356 -28.1411 -55.0338 6.43929 -0.273426 -6.74337 -2.53438 1.47825 -11.7674 -3.92553 2.76658 5.1018 
72.4747 100.605 -42.6111 102.39 47.2912 83.8892 -173.683 -7.76296 88.3873 -22.0008 17.4086 -0.204683 80.8664 13.3123 -1.00751 12.1124 -13.4525 9.50041 179.887 14.6398 94.5728 -14.4333 -13.601 -1.89153 63.8572 -3.43177 -2.53035 22.0443 1.50425 4.25443 -0.585408 8.18629 -90.3146 10.4985 -1.31039 -0.508547 -1.17181 -1.3315 -0.450365 -23.7102 -1.09698 -0.878887 -3.69753 -1.09697 -0.878886 87.0496 -32.277 -111.531 22.6937 -2.62599 -19.336 9.92943 8.01588 -46.5817 -12.9084 2.48205 -20.799 -91.0176 -48.8298 76.9354 -24.7136 10.3287 -23.4807 -21.6309 -27.2535 -53.0965 -2.38296 -0.123412 -13.1269 -1.88354 1.18122 -13.4938 -3.74637 2.75389 5.39104 
75.9139 99.7343 -46.0235 102.726 47.8287 83.8349 -172.322 -11.7073 89.9096 -20.8542 19.0024 -0.519537 83.2735 15.064 -1.02412 11.7395 -13.3768 8.78906 178.912 14.9787 95.9424 -6.97227 -9.33366 0.44816 63.3645 -2.51353 -0.932109 25.3884 0.678846 2.9981 -0.650484 8.24556 -90.2959 10.3801 -1.43128 -0.462809 -1.29008 -1.45027 -0.399354 -23.8295 -1.22602 -0.871614 -3.81687 -1.22604 -0.871618 87.179 -32.4849 -111.197 22.9375 -1.95094 -19.2212 10.4637 8.58294 -46.9261 -11.2288 2.2826 -20.6849 -91.044 -48.9598 76.9262 -24.5422 10.434 -24.6064 -21.4698 -27.3636 -53.1308 -0.146763 -0.21383 -11.2764 -2.03092 1.09762 -14.6247 -3.16922 2.81289 5.98982 
79.604 98.4655 -49.7027 103.016 47.6576 83.914 -171.045 -15.5345 91.1559 -20.7217 18.3937 -0.723115 86.2686 16.5383 -2.0144 13.3288 -12.9237 10.2187 178.901 16.3413 97.7207 -7.08048 -5.19057 1.8671 64.9831 -3.12667 -0.989934 27.3469 0.209365 1.99504 -0.664706 8.27356 -90.3276 10.3237 -1.47411 -0.52307 -1.34652 -1.49571 -0.457681 -23.886 -1.24875 -0.941967 -3.87336 -1.24876 -0.941971 87.0654 -32.7458 -111.299 22.3227 -1.73984 -19.0978 10.9528 8.7846 -47.1784 -13.583 2.28471 -18.1728 -91.2123 -49.1674 76.7222 -24.7845 10.3184 -24.9321 -21.3243 -27.4044 -53.184 0.527475 -0.237459 -10.146 -1.97545 1.16138 -14.2518 -3.12 2.8401 5.98622 
83.1965 97.5706 -54.2221 102.508 49.6496 83.7576 -170.787 -18.788 91.3599 -20.1671 21.7112 -0.246776 84.1285 17.0496 1.51373 17.1221 -10.5936 10.9905 178.535 16.0176 97.5238 -7.91042 -6.35077 2.29422 61.7782 -2.01165 -0.904185 24.4243 1.02057 2.81336 -0.903786 8.18875 -90.3181 10.4933 -1.94618 -0.459245 -1.17622 -1.96451 -0.373126 -23.7203 -1.71818 -1.02307 -3.70767 -1.71818 -1.02308 87.7926 -32.7414 -109.934 22.6762 -2.02316 -19.7504 10.4069 8.16728 -47.3195 -10.5864 2.32231 -22.0508 -91.1944 -48.8819 76.681 -25.364 10.3114 -24.8999 -21.2519 -27.325 -53.1767 0.015963 -0.20247 -9.736 -0.797659 1.06289 -13.4153 -3.93222 2.74136 5.52308 
86.9868 97.3405 -58.6815 102.128 51.484 83.5892 -171.101 -20.165 91.5473 -22.0593 21.0875 1.01304 79.8928 13.9631 0.925519 22.467 -6.39028 9.52079 178.077 21.022 97.5878 -20.4375 -9.26729 1.62415 61.1672 0.220888 -1.89444 20.3388 2.12035 3.83765 -1.07319 8.0804 -90.3327 10.7098 -2.29043 -0.451432 -0.959125 -2.30808 -0.350147 -23.5073 -2.04883 -1.11919 -3.49462 -2.04884 -1.11919 87.798 -33.0118 -109.813 23.2075 -1.50261 -19.0712 9.28516 5.74973 -47.5574 -10.9585 2.18742 -21.7056 -91.3839 -49.552 76.5561 -25.1858 10.5634 -24.5692 -22.2507 -28.4552 -53.926 -2.86629 -0.0783374 -8.12571 -0.177117 0.893155 -12.1145 -4.37666 2.4648 4.45199 
90.5932 97.4503 -63.2811 101.812 52.1121 83.1028 -172.171 -17.0743 90.5506 -30.7806 21.7923 2.0042 70.2712 7.2202 1.65966 31.5535 -0.402371 9.05822 177.398 22.0951 97.0268 -28.1148 -9.97713 1.51443 61.7282 0.0590285 -1.39279 15.8589 3.44108 4.18942 -1.01335 7.97421 -90.3466 10.922 -2.17785 -0.483927 -0.747211 -2.19704 -0.387564 -23.2937 -1.93171 -1.1163 -3.28103 -1.9317 -1.1163 88.4358 -32.1813 -108.943 24.8868 -1.09723 -17.8435 7.73599 3.53766 -47.3835 -10.1975 2.01459 -22.8812 -91.5648 -50.2701 76.4596 -25.2894 11.2033 -24.344 -20.4573 -27.0184 -51.8809 -0.232324 -0.198241 -10.2913 0.0498727 0.410947 -10.0265 -4.35154 1.74425 3.3131 
93.8566 97.8382 -67.4338 101.969 51.7185 82.8463 -172.031 -10.502 91.0155 -43.6007 26.1622 2.35464 60.2663 0.187059 0.6944 20.3657 -6.52901 5.81351 176.861 20.961 97.0887 -33.1521 -10.7047 1.48045 65.3065 -2.33533 -1.76801 16.0119 3.42005 4.08575 -0.774606 7.90592 -90.3982 11.0577 -1.72662 -0.626143 -0.6122 -1.7525 -0.549521 -23.1532 -1.4586 -1.11618 -3.14051 -1.4586 -1.11619 89.0579 -31.2435 -108.121 26.0466 -2.3044 -16.8687 17.5454 13.6463 -50.588 -7.1046 0.538587 -18.4821 -92.168 -50.4283 75.6036 -25.6102 11.4622 -23.2828 -20.0956 -26.4868 -52.0839 0.83709 -0.255888 -10.3012 -0.797994 -0.00306225 -7.81554 -4.10178 0.990553 2.37631 
96.8282 98.1493 -70.853 102.307 51.9 83.1673 -171.44 -2.04126 93.277 -54.552 27.2528 2.63148 51.7204 -5.4167 -2.50963 15.6907 -9.34691 5.56284 176.077 18.5835 97.5026 -35.1783 -10.8193 2.10088 68.2388 -4.18194 -1.93238 17.3741 2.93816 4.31027 -0.550687 7.88223 -90.4879 11.1042 -1.3225 -0.842764 -0.56631 -1.35834 -0.78371 -23.1028 -1.00811 -1.20126 -3.09009 -1.00812 -1.20126 89.7691 -31.0095 -106.829 26.3048 -0.650558 -17.1519 -153.947 -20.4708 -154.973 -29.1371 9.32703 -68.6201 -92.4223 -50.4187 75.2252 -25.1581 11.8998 -23.4756 -20.1252 -26.7113 -51.2693 0.733369 -0.228439 -9.4529 -1.88109 -0.518106 -5.88388 -3.7179 0.198668 0.863512 
99.7367 98.9345 -74.281 103.461 52.7747 81.761 -171.985 5.17169 92.7721 -62.2899 20.1644 2.7812 59.4444 -0.162626 -0.376797 12.8669 -11.542 6.44761 175.813 14.2774 96.9896 -34.2196 -10.7406 2.07808 70.4263 -5.72574 -2.50388 18.7473 2.59827 3.92029 -0.593973 8.00398 -90.4197 10.8619 -1.37652 -0.705654 -0.808476 -1.40624 -0.644397 -23.3462 -1.1008 -1.08675 -3.33352 -1.10083 -1.08675 87.6356 -31.2921 -110.846 24.7776 -0.753633 -16.8769 15.0137 6.81247 -48.6804 -12.259 1.90223 -25.8823 -91.9447 -50.3739 75.9213 -25.0732 10.8631 -22.7636 -20.4821 -26.367 -53.0884 2.30602 -0.329752 -10.1692 -3.26407 -0.143593 -6.09594 -2.47626 0.525547 1.9632 
102.525 100.055 -77.5466 103.922 52.5875 80.5448 -172.627 11.1312 91.7686 -62.4475 11.6456 2.4071 66.4752 4.87835 1.38647 10.1147 -12.3709 4.35883 176.043 9.41683 96.2662 -31.213 -10.834 1.50795 71.4885 -6.40926 -2.41797 19.5624 2.38152 3.74463 -0.413027 8.04477 -90.2996 10.7818 -0.960661 -0.507076 -0.888913 -0.982045 -0.464304 -23.4252 -0.763848 -0.772356 -3.41257 -0.763839 -0.772348 87.4941 -31.6936 -110.94 24.5005 -1.76687 -17.7893 10.3159 6.45867 -46.8224 -14.5692 2.8365 -21.9798 -91.2963 -50.7115 76.9573 -24.2956 10.6386 -23.0364 -19.9649 -25.8878 -52.7346 -1.08309 -0.126732 -10.5156 -4.40555 -0.312547 -5.73728 -2.24935 0.270845 1.76392 
105.168 101.148 -80.7938 103.948 51.2046 79.3741 -173.584 15.0838 89.9781 -56.2716 5.06113 1.69889 68.9095 6.80223 2.68535 7.83628 -13.9135 4.50607 176.142 4.46293 95.1625 -27.7298 -11.9561 0.571952 72.0551 -6.64918 -2.06691 19.5748 2.39694 3.65443 -0.179481 8.08475 -90.1658 10.7041 -0.433816 -0.289811 -0.966836 -0.446149 -0.270442 -23.5021 -0.32666 -0.406795 -3.48947 -0.32666 -0.406796 87.1647 -31.2736 -111.753 24.8965 -0.774805 -18.4131 6.26645 1.51817 -46.7023 -12.2088 2.15378 -22.7378 -91.0925 -51.4843 77.4385 -23.6454 10.2211 -21.9034 -22.285 -26.9211 -54.6241 -0.700175 -0.146342 -9.68001 -5.5095 -0.385421 -4.27428 -1.89807 0.00949471 0.922461 
107.833 101.622 -84.1125 103.716 49.2809 78.9019 -174.771 17.1896 88.9562 -45.7283 1.86361 0.940719 68.7631 6.80601 2.29737 8.52513 -13.2659 4.098 176.412 0.0363939 94.5618 -25.2262 -13.4263 -0.495619 72.9749 -7.109 -2.35093 20.1962 2.19569 3.67941 0.102369 8.14717 -90.0515 10.5796 0.180222 -0.118559 -1.09132 0.174816 -0.126389 -23.6266 0.207527 -0.0589111 -3.61392 0.207513 -0.0589199 87.2482 -31.0764 -111.681 24.9116 -1.65916 -19.657 5.52797 0.541835 -46.4234 -11.9654 2.03217 -22.6161 -90.3384 -51.9792 78.6501 -22.6481 13.1442 -20.5613 -30.3748 -30.3907 -61.0593 4.07144 -0.53102 -12.1829 -5.04905 -0.387073 -2.91143 -2.37262 -0.107092 0.289865 
110.498 101.556 -87.7128 103.189 47.2673 79.0132 -176.042 17.1719 88.4895 -31.3848 3.7594 0.298397 67.2735 6.27192 1.12836 10.4968 -12.6253 5.4218 176.084 -3.36786 93.5707 -24.5781 -15.4565 -1.11987 74.781 -7.95426 -2.19296 20.5656 2.01515 3.98563 0.390992 8.21658 -90.019 10.4412 0.770242 -0.105878 -1.22953 0.764846 -0.139684 -23.7665 0.766446 0.13052 -3.75383 0.766452 0.130516 87.0816 -29.236 -112.846 25.0825 -2.33113 -20.7271 5.89963 2.48693 -46.1285 -12.785 2.18248 -21.8469 -90.4397 -52.1316 78.5352 -21.6092 16.2071 -18.7733 -40.1664 -32.5004 -69.1192 11.3992 -1.38083 -15.1176 -4.44015 0.156347 -0.738363 -2.52886 0.229162 0.196284 
113.114 101.079 -91.5799 101.784 45.6889 80.1206 -177.092 15.8443 88.2602 -13.8853 4.93646 -0.328839 63.4783 4.43895 -1.61792 15.1109 -10.9933 8.65307 175.369 -5.87661 92.5935 -24.3948 -17.6928 -1.33969 76.7008 -9.27947 -2.76423 21.2781 1.86486 3.63835 0.650061 8.20332 -90.0709 10.4692 1.26242 -0.252798 -1.20117 1.25005 -0.308125 -23.7413 1.28002 0.138363 -3.72863 1.28001 0.13835 87.3149 -27.843 -113.054 24.4916 -3.31881 -22.2951 6.48654 2.74843 -45.8704 -14.0503 2.27141 -20.8449 -90.7517 -54.2398 78.5275 -19.7568 13.0573 -19.0717 -40.8931 -31.1252 -69.2378 16.486 -1.72444 -14.2425 -3.56763 0.324197 2.4013 -2.64845 0.0679577 -1.61445 
